<svg width="216" height="178" viewBox="0 0 216 178" fill="none" xmlns="http://www.w3.org/2000/svg">
<rect width="216" height="178" fill="white"/>
<path fill-rule="evenodd" clip-rule="evenodd" d="M88 41.5C88 42.9981 87.9158 44.4777 87.7517 45.9347C93.998 44.0266 100.629 43 107.5 43C114.371 43 121.002 44.0266 127.248 45.9347C127.084 44.4777 127 42.9981 127 41.5C127 18.5802 146.699 0 171 0C195.301 0 215 18.5802 215 41.5C215 64.4198 195.301 83 171 83C170.379 83 169.761 82.9879 169.146 82.9638C172.908 91.3728 175 100.692 175 110.5C175 147.779 144.779 178 107.5 178C70.2208 178 40 147.779 40 110.5C40 100.692 42.0918 91.3728 45.8536 82.9638C45.2389 82.9879 44.621 83 44 83C19.6995 83 0 64.4198 0 41.5C0 18.5802 19.6995 0 44 0C68.3005 0 88 18.5802 88 41.5Z" fill="#C4C4C4"/>
</svg>
